/* XPM */
static char *_fe18051546449cbb991e75fb9b3918a[] = {
/* columns rows colors chars-per-pixel */
"64 64 235 2 ",
"   c #05001D",
".  c #120012",
"X  c #000425",
"o  c #04072A",
"O  c #050D34",
"+  c #00163C",
"@  c #00132B",
"#  c #270029",
"$  c #260B38",
"%  c #0A243F",
"&  c #0F1A43",
"*  c #3C1146",
"=  c #052449",
"-  c #122648",
";  c #052852",
":  c #023458",
">  c #153A56",
",  c #05334B",
"<  c #30284E",
"1  c #083C64",
"2  c #163E62",
"3  c #2B3664",
"4  c #4D1E50",
"5  c #751853",
"6  c #1A445D",
"7  c #32465C",
"8  c #014465",
"9  c #084669",
"0  c #154769",
"q  c #0A4671",
"w  c #074A72",
"e  c #114E76",
"r  c #0D5478",
"t  c #155C7A",
"y  c #1D576F",
"u  c #264C66",
"i  c #29546D",
"p  c #3A526B",
"a  c #2C4D77",
"s  c #255878",
"d  c #37556C",
"f  c #0F637D",
"g  c #3A6978",
"h  c #424055",
"j  c #405872",
"k  c #466677",
"l  c #47707C",
"z  c #69506D",
"x  c #821951",
"c  c #981C63",
"v  c #8F2E6D",
"b  c #A93D77",
"n  c #D0317A",
"m  c #805C76",
"M  c #165883",
"N  c #065482",
"B  c #315C8A",
"V  c #1C6584",
"C  c #196688",
"Z  c #1B6894",
"A  c #1B789C",
"S  c #266487",
"D  c #386985",
"F  c #386F99",
"G  c #26769A",
"H  c #37739E",
"J  c #2D6D93",
"K  c #2B79A9",
"L  c #3879A7",
"P  c #2A7EB0",
"I  c #426987",
"U  c #516C87",
"Y  c #4B7C8B",
"T  c #46728C",
"R  c #52758D",
"E  c #4C7896",
"W  c #537794",
"Q  c #447FA7",
"!  c #6C728C",
"~  c #D9378A",
"^  c #835E8A",
"/  c #967590",
"(  c #DF4994",
")  c #3D8593",
"_  c #1D82A0",
"`  c #3C83A6",
"'  c #3385B6",
"]  c #3594B8",
"[  c #298EB0",
"{  c #3FA5BE",
"}  c #4C808E",
"|  c #428699",
" . c #568698",
".. c #65889A",
"X. c #788E9A",
"o. c #66929E",
"O. c #73929D",
"+. c #6E848F",
"@. c #478AA6",
"#. c #598AA8",
"$. c #5896A9",
"%. c #4695BA",
"&. c #5595B4",
"*. c #5B9DB7",
"=. c #508DAC",
"-. c #678CA8",
";. c #6A9CAB",
":. c #6897A8",
">. c #7897A9",
",. c #6D97B6",
"<. c #7499B3",
"1. c #58A3B9",
"2. c #77A1AC",
"3. c #6AA8B9",
"4. c #77AABA",
"5. c #3B9DC6",
"6. c #3CA3C6",
"7. c #4D9FCF",
"8. c #48A1C6",
"9. c #5CA5C9",
"0. c #47A2D2",
"q. c #4BA5D4",
"w. c #57ACD2",
"e. c #4AB5D1",
"r. c #5AB6D6",
"t. c #40B2CD",
"y. c #6BADCA",
"u. c #66A8C8",
"i. c #75A8C6",
"p. c #65B1CC",
"a. c #77B3CA",
"s. c #67BAD7",
"d. c #79BDD5",
"f. c #6CABD2",
"g. c #55B8E0",
"h. c #6CC0D5",
"j. c #6AC3DD",
"k. c #74C3D6",
"l. c #75C6DA",
"z. c #59C6E7",
"x. c #67C9E7",
"c. c #78C6E5",
"v. c #66D2ED",
"b. c #7AD4EB",
"n. c #6ACEF6",
"m. c #6CDEFA",
"M. c #6CD8F4",
"N. c #74DDF4",
"B. c #7CDBF4",
"V. c #72DFFC",
"C. c #79D7F8",
"Z. c #66E4FD",
"A. c #6BE3FD",
"S. c #6BE6FB",
"D. c #74E4FD",
"F. c #7BE4FC",
"G. c #7BE8FD",
"H. c #75E8FF",
"J. c #87969D",
"K. c #8897A6",
"L. c #879EB3",
"P. c #9395A8",
"I. c #AF93B6",
"U. c #8BA4AE",
"Y. c #88A9BA",
"T. c #95ADBA",
"R. c #94ADB6",
"E. c #A5B2BD",
"W. c #ABB3BC",
"Q. c #C19AB5",
"!. c #86B2C1",
"~. c #9EB4C2",
"^. c #95B8C7",
"/. c #9CB4D3",
"(. c #9ABCD8",
"). c #93ABD3",
"_. c #A3BAC5",
"`. c #A4B8C9",
"'. c #B5BFC7",
"]. c #A7BCD7",
"[. c #ACAFD6",
"{. c #95C6DA",
"}. c #93C4D3",
"|. c #ADC4CB",
" X c #B2C3CE",
".X c #B3CAD7",
"XX c #AAD1DB",
"oX c #BCD4DE",
"OX c #85D7EB",
"+X c #83D6F5",
"@X c #85D9F4",
"#X c #97DFED",
"$X c #BBD5E4",
"%X c #A4CDEB",
"&X c #85EBFE",
"*X c #88E4FC",
"=X c #96E7FA",
"-X c #88F0FF",
";X c #92F3FF",
":X c #9AF6FF",
">X c #A4F4FF",
",X c #AAF4FF",
"<X c #A4FBFF",
"1X c #ABF9FF",
"2X c #B1F4FF",
"3X c #A6EFFE",
"4X c #C0D6DC",
"5X c #C4DBE5",
"6X c #C8DBE7",
"7X c #D6DEE6",
"8X c #C5DCF3",
"9X c #C3CEE0",
"0X c #CEE4EB",
"qX c #D2E5ED",
"wX c #D8E7ED",
"eX c #CCE4F7",
"rX c #D6EBF5",
"tX c #C4FEFF",
"yX c #C8FFFF",
"uX c #DEF4FA",
"iX c #E4EEF4",
"pX c #E5ECF7",
"aX c #E2F1F5",
"sX c #E5F2FA",
"dX c #EBF5FB",
"fX c #EDFBFF",
"gX c #E9F3F6",
"hX c #F6F6F6",
"jX c #F8F6F7",
"kX c #F6F8F7",
"lX c #F5F6F8",
"zX c #F4FCFE",
"xX c #FBFBFD",
"cX c #F9F7F8",
"vX c #E1E8EE",
/* pixels */
"hXhXhXhXhXjXhXhXhXhXkXhXhXhXhXhXhXhXhXhXhXhXhXhXhXhXhXhXhXhXhXhXhXhXhXhXhXhXhXhXhXhXhXhXhXhXhXhXhXhXhXhXhXhXhXhXhXhXhXjXhXhXhXhX",
"hXhXhXhXhXhXhXhXhXhXhXhXhXhXhXhXhXhXhXhXhXhXhXhXhXhXhXhXhXhXhXhXhXhXhXhXhXhXhXhXhXhXhXhXhXhXhXhXhXhXhXhXhXhXhXhXhXhXhXhXhXhXhXhX",
"hXhXhXhXhXhXhXhXhXhXjXhXhXhXhXhXhXhXhXhXhXhXhXhXhXhXhXhXhXkXkXhXhXkXkXkXhXhXhXhXhXhXhXhXhXhXhXhXhXhXhXhXjXhXhXhXhXhXhXhXhXhXhXhX",
"hXhXhXhXhXhXhXhXhXhXhXhXhXhXhXhXhXhXhXkXhXhXhXhXhXhXhXhXxXgXaXaXaXaXaXiXkXkXhXhXhXhXhXhXhXhXhXlXhXhXhXhXhXhXhXhXhXhXhXhXhXhXhXhX",
"hXhXhXhXhXhXhXhXjXhXhXhXhXhXhXhXhXhXkXkXhXhXhXhXhXhXkXzXgXU.k } Y } } l 4XkXkXkXhXhXhXhXhXhXhXhXhXhXhXhXhXhXhXhXjXhXhXhXhXhXhXhX",
"hXhXhXhXhXjXkXhXhXhXhXhXjXhXhXhXhXhXkXkXhXhXhXhXhXhXfXoXl 4.h.h.h.h.s.k. .O.dXkXhXhXhXhXhXhXhXhXhXhXhXjXhXhXhXhXhXhXhXhXhXhXhXhX",
"hXhXhXhXhXhXhXhXhXhXhXhXkXhXhXhXhXhXhXhXhXhXhXhXhXfX;.| h.D.G.D.N.G.G.G.x.1.^.zXgXhXhXhXhXhXhXhXhXhXhXhXhXhXhXhXhXhXhXhXhXhXjXhX",
"hXhXhXhXhXhXhXhXhXhXhXhXhXhXhXhXhXhXhXhXhXhXkXkXkXT.;.b.H.S.Z.S.Z.S.Z.S.S.N.y XXjXhXhXhXhXhXhXhXhXhXhXhXhXhXhXhXhXhXhXhXhXhXhXhX",
"hXhXhXhXhXhXhXhXhXhXhXkXhXhXhXhXhXkXhXhXhXhXhXkXXXo.#X<X&XM.S.Z.Z.Z.Z.Z.Z.V.s.D eXxXhXhXhXhXhXhXhXhXhXhXhXkXhXhXhXhXhXhXhXjXhXhX",
"hXhXhXhXhXhXhXhXhXhXhXhXhXhXhXhXkXkXhXhXhXhXkXwXo.OX3X1X<X*XZ.Z.S.Z.Z.S.Z.A.V.@.W lXjXhXhXhXhXhXhXhXhXhXhXhXhXhXhXhXhXhXhXhXhXhX",
"jXhXhXhXhXhXhXhXhXjXhXhXhXhXhXhXhXhXhXhXhXhXkX4X) ;X2X2X1X*XA.Z.Z.Z.Z.Z.S.Z.F.r.2 !.zXlXhXhXhXhXhXhXhXhXhXhXjXlXhXjXhXhXhXhXhXhX",
"hXhXhXhXjXhXkXhXhXhXhXhXhXhXhXhXhXhXhXhXhXkXgX2.k.;X2X2X1X*XZ.Z.S.Z.Z.Z.Z.A.S.e.M -.fXhXhXhXhXhXhXhXhXhXhXhXhXhXhXhXhXhXhXhXhXhX",
"hXhXhXhXhXhXhXhXhXhXhXhXjXhXhXhXhXhXhXhXhXfXuX .b.;X1X2X;XN.S.S.S.S.S.Z.Z.Z.A.M.' B .XxXjXjXhXhXhXhXhXhXhXhXhXhXhXhXkXhXjXhXhXhX",
"hXkXhXhXhXhXhXhXhXhXhXhXhXhXhXhXhXhXhXhXhXfXR.4.N.G.<X1Xh._ M.S.t.] S.Z.Z.Z.Z.D.q.9 T.xXhXhXhXhXhXhXhXhXhXhXhXhXhXhXhXhXhXhXhXhX",
"hXhXhXhXjXhXhXhXhXhXhXhXhXjXhXhXhXhXhXhXhXfXo.k.N.S.&Xx.{ x.m.S.v.e.6.S.S.Z.Z.A.q.q _.xXhXhXhXhXhXhXhXkXjXhXhXhXhXhXhXhXhXjXhXhX",
"hXhXhXhXhXhXhXhXhXhXkXhXhXhXhXhXhXhXhXhXhXfX;.k.S.Z.S.v.M.e.6.z.] M.M.Z.S.Z.Z.S.0.q E.xXhXhXhXhXhXhXhXhXhXhXhXhXhXhXhXhXhXhXhXhX",
"hXhXhXhXhXhXhXhXhXhXhXhXhXhXhXhXhXhXhXhXhXdX;.k.F.Z.Z.D.D.A _ r.= x.H.Z.Z.Z.A.A.q.q _.xXhXhXhXhXhXhXhXhXhXhXhXhXhXhXhXhXhXhXhXjX",
"hXhXhXhXhXkXhXhXhXhXjXhXhXhXhXhXhXhXhXhXhXdX;.l.D.A.A.S.D.j.j.b.s.b.D.D.N.N.A.m.q.1 ~.xXhXhXhXhXhXhXhXhXkXhXhXhXhXhXhXhXhXhXhXhX",
"hXhXhXhXhXhXhXhXhXhXhXhXhXhXkXhXhXhXkXlXhXfX;.h.V.A.C.C.b.OXOXOXOXOXl.,XtX3.N.A.0.q _.xXhXhXhXhXhXhXhXhXhXhXhXhXhXhXjXhXhXhXhXhX",
"jXhXhXhXjXhXhXhXhXhXhXhXhXhXhXhXhXjXhXhXhXfX;.k.*Xr.G +XtX2XtXtXtXtXtXuXfXk 1.*X7.q E.cXgXhXlXhXhXhXhXhXhXhXhXhXhXhXhXhXhXhXhXkX",
"hXhXkXhXhXhXhXhXhXhXhXhXhXhXhXhXhXhXhXhXhXfXo.}.c.M ; B eXzX.XfX5XuXzX6XJ.3 % d.9.1 ~.cXlXhXhXhXhXhXhXhXhXhXhXjXkXhXhXhXhXhXhXhX",
"hXhXhXhXhXhXhXhXhXkXhXhXhXhXjXhXhXhXhXhXhXzX$X4.u.1 B & ! P.h I.z / Q.m . < @ 4.&.E rXcXhXhXhXhXhXhXhXhXhXhXhXhXhXhXhXhXhXhXhXhX",
"hXhXhXhXhXhXhXhXhXhXhXhXhXhXhXhXhXhXhXjXhXzXuX .i.1 B 3 o X o o # 5 x 5 v 4 X a.Q W lXlXhXhXhXhXhXhXhXhXhXhXhXhXhXhXhXhXjXhXhXhX",
"hXhXhXhXhXlXjXhXhXjXhXhXhXhXhXhXhXhXhXhXhXhXlX`.#.#.; - < < < 4 c ( ( n b 4 U i.d $XlXlXhXjXhXhXhXjXkXhXhXhXhXhXhXhXhXhXhXhXhXhX",
"hXhXhXhXhXhXhXhXhXhXhXhXhXhXhXhXhXhXhXhXhXhXjXdXY.;.I & & $ # 5 ~ ~ ~ n x ^ ).s ^.zXlXhXhXhXhXhXhXhXhXhXhXhXhXhXhXhXhXhXhXhXjXhX",
"hXhXhXhXhXhXhXhXhXhXhXhXhXhXhXhXhXhXhXhXhXhXhXzXrX;.i.,.O O o 4 v c c 5 I.[.T >.dXjXlXhXhXhXhXhXhXhXhXhXhXhXhXhXhXhXhXhXhXhXhXhX",
"hXhXhXhXhXhXhXhXhXhXjXhXhXkXhXhXhXhXhXhXhXhXhXlXxX6X .#.a.f.i.i.).).[./.%XW k pXzXhXhXhXlXhXhXhXhXjXhXhXhXkXhXjXhXhXjXhXhXhXhXhX",
"hXhXhXhXkXhXhXhXhXhXhXhXhXhXhXhXhXhXhXhXhXhXhXkXhXzX.X!.3.%.r.n.b.@X*.&.@.!.6XxXlXjXjXhXhXhXhXhXhXhXhXhXhXhXhXhXhXhXhXhXhXkXhXhX",
"hXhXhXhXhXhXhXjXhXhXhXhXhXjXjXhXhXhXkXhXhXhXhXhXhXgXkX8Xo + Z ] ] w.1 o R.zXzXhXhXhXhXhXhXhXhXhXhXhXhXhXhXhXhXhXjXhXhXhXhXhXhXhX",
"hXhXhXhXhXhXhXhXhXhXhXhXhXhXhXhXcXhXhXhXhXhXkXkXzXzX'.>.; F r.g.g.' L u >. XzXzXhXkXhXhXhXhXkXhXhXhXhXhXhXhXhXhXhXhXhXhXhXhXhXhX",
"hXhXhXhXhXhXhXhXhXhXhXhXhXhXhXhXhXhXhXhXhXhXhXxX7XR.:.: S w.F.H.D.5.A w.1.$.4.qXxXhXlXhXhXhXhXhXhXhXhXjXhXhXhXhXhXkXhXhXjXhXhXhX",
"kXhXhXhXhXhXhXhXkXhXhXhXhXhXhXhXhXhXcXhXhXlXdX_.Y.i -.: M n.D.m.m.6.Z A s.OX| 2._.fXzXlXhXhXkXhXhXhXhXlXhXhXhXhXhXhXhXhXhXhXhXhX",
"hXkXhXhXhXhXhXhXhXhXcXhXhXkXhXhXhXhXhXkXlXzXXXD =.T @ <.8 x.D.A.m.8.e #.T D @Xj.@.4.0XxXhXhXhXhXhXhXhXhXhXhXhXhXhXhXhXhXkXhXhXhX",
"hXhXhXjXhXhXhXhXhXhXhXhXhXhXhXhXhXhXhXkXzX5X*.y.0 -.9X5XS M.A.Z.A.8.1 (.8X:.V j.@X| 2.wXkXhXhXhXhXhXhXhXhXhXhXhXjXhXhXhXhXhXhXhX",
"hXhXhXhXhXhXhXhXhXhXhXhXhXhXhXhXlXhXlXdXrX2.9.V W uXfX!.h.S.Z.Z.m.8.0 /.fXdX<.+ w.=Xg  XxXhXhXhXhXhXhXhXhXhXhXhXhXhXhXhXhXjXhXhX",
"hXhXhXhXhXhXhXhXhXhXhXhXhXhXhXhXhXhXkXzX|. .c.w -.uXrXg *X-XN.S.V.8.9 /.zXdX^.&.%.@.R rXzXhXhXhXhXhXhXhXhXhXhXkXhXhXhXhXhXhXhXhX",
"hXhXhXhXhXkXhXhXhXhXhXhXhXhXhXhXhXhXhXkXwX;.c.r.9 i.{.3.=X1X&XD.m.8.1 /.fXT.3.+XF = 6XxXhXhXhXhXkXhXhXhXhXhXhXhXhXhXhXhXhXhXhXhX",
"hXhXhXhXhXhXhXkXhXhXhXhXhXhXkXhXhXhXlXkXxXoX3.B.9.w 8 @X,X,X:XD.V.8.t i.{.3.C.%.- ].zXhXhXhXhXhXhXhXhXhXhXhXhXhXhXhXjXhXhXhXhXhX",
"hXjXhXhXhXhXhXhXkXhXhXhXhXhXhXhXhXhXkXhXhXfX-.&.9.J C OX,X1X-Xm.m.5.P w M +Xw.& j dXkXhXhXhXhXhXhXhXhXhXhXhXhXhXhXhXhXhXhXhXhXhX",
"hXhXhXhXhXhXhXhXhXhXhXhXhXhXhXkXhXhXhXlXhXfX;.s M H G +X*X;XV.m.V.5.P N x.j.M 1 k iXkXhXhXhXhXhXhXhXhXhXhXhXhXhXhXhXhXkXhXhXhXhX",
"hXhXhXhXhXhXhXhXhXhXhXhXhXkXhXhXhXhXhXhXhXfX:.a.=.M 9 j.C.D.S.H.n.[ P Z L @.K H p pXcXlXhXhXhXhXhXhXhXhXhXhXhXhXhXhXhXhXkXhXhXhX",
"hXhXhXhXhXhXhXjXhXhXhXhXhXhXhXhXhXhXhXhXhXfX}.W 0 #.0 @.x.z.g.g.5.K L 1 E D 2 2 L.lXlXhXhXhXhXhXhXhXhXhXhXhXhXhXhXhXhXhXhXjXhXhX",
"hXhXhXhXhXhXhXhXhXhXhXhXhXhXhXhXhXhXhXhXhXhXgXR.X.8X/.s P P 5.5.' L B T eXE.J.K.vXjXhXhXhXhXhXhXhXhXhXhXhXhXhXhXhXhXhXhXhXhXhXhX",
"hXhXkXhXhXhXhXhXhXhXhXhXhXhXhXhXhXhXhXkXhXcXcXcXxXzXrXu J P q 1 M H O [.xXcXcXxXjXhXhXhXhXhXhXhXhXhXhXhXjXhXkXhXhXhXhXhXhXhXhXhX",
"hXhXhXhXhXjXhXhXhXhXhXhXhXhXhXhXhXhXhXhXhXkXhXhXhXzXwXg Q H <.U.D a O /.xXhXhXhXhXlXhXhXhXhXhXhXhXhXhXhXhXhXhXhXhXhXhXhXhXhXhXhX",
"hXhXhXhXhXhXhXhXhXhXhXhXhXhXhXhXhXhXhXhXhXhXhXhXhXzXrX..a.: rXxXL.a > ].lXhXhXhXhXhXlXhXhXhXhXhXhXkXhXhXhXhXhXhXhXhXhXhXhXhXhXhX",
"jXhXhXhXhXhXhXhXhXhXhXhXhXhXhXhXhXhXhXhXhXhXhXhXhXfX$X;.-.-.sXxX XU a <.sXjXlXhXjXhXhXhXlXhXhXhXhXhXhXhXhXhXhXhXhXhXhXhXhXhXhXhX",
"hXhXhXkXhXhXhXhXhXhXhXhXhXhXhXhXhXhXhXhXhXhXhXhXkXsX:.i.> 8XzXdXzX..@.8 oXxXhXhXhXhXhXhXlXhXhXhXhXhXhXjXjXhXhXhXhXhXkXhXhXhXjXhX",
"hXhXhXhXhXkXhXhXhXhXhXhXjXhXhXhXhXhXhXhXhXhXhXhXhXdX:.a.6 $XzXhXgX>.s.9 oXcXhXlXhXhXkXhXhXhXhXhXhXhXhXhXhXhXhXhXhXhXhXhXjXhXkXhX",
"hXhXhXhXhXhXhXhXhXhXhXhXhXhXhXhXhXhXhXhXhXhXhXhXhXdX$.a.> 9XxXkXhX>.s.w $XcXhXhXhXhXlXkXhXhXjXhXhXhXhXhXhXhXhXhXjXhXhXhXhXhXhXhX",
"hXhXhXhXhXhXhXhXhXhXhXhXhXhXhXhXhXhXhXhXhXhXhXhXkX0X1.3.U wXzXlXgXX.s.1 5XxXhXlXhXhXhXhXhXkXhXhXhXhXhXhXhXhXhXhXhXhXhXhXhXhXhXhX",
"hXhXhXkXhXhXhXhXhXhXhXhXhXhXkXhXhXhXhXhXhXhXhXhXxXU.p.C ~.xXgXhXlXR.p.V ].xXlXjXhXhXhXhXhXhXhXhXhXhXhXhXhXhXkXhXhXhXhXhXhXhXhXhX",
"hXhXhXhXhXhXhXhXhXhXhXhXhXhXhXhXhXhXkXhXhXhXhXhXxXT.p.C ^.xXhXhXzXrX&.p.7 vXxXjXhXhXhXhXhXhXhXhXjXhXhXhXhXhXhXhXhXhXhXhXhXhXhXhX",
"hXhXhXhXhXhXhXhXkXhXhXhXhXhXhXhXhXhXhXhXhXhXhXkXsXo.s.C E.xXhXhXcXqX$.y.u rXlXjXhXhXhXhXhXhXhXhXkXhXhXhXhXhXhXhXhXhXhXkXhXhXhXhX",
"hXhXhXhXhXhXhXhXhXhXhXhXhXhXhXhXhXhXhXhXhXhXkXzX}.t x.f ^.xXhXhXxXrX@.p.i 8XzXhXhXhXkXkXhXjXhXhXhXhXhXhXhXhXhXhXhXhXhXhXhXhXhXjX",
"hXjXhXhXhXhXhXcXhXhXhXhXhXhXhXjXhXhXhXhXhXgXzXXX$.B.C.r _.xXhXhXxX4X1.j.S W rXzXlXhXhXlXhXhXhXhXhXhXhXhXhXhXhXjXhXhXhXhXhXhXhXhX",
"hXhXhXhXhXhXhXhXhXhXhXhXhXhXhXhXhXhXhXlXhXzX0X:.b.&Xn.e _.xXhXhXhXO.l.D.e.e >.fXkXhXhXhXhXhXhXhXhXhXhXhXhXhXhXhXhXhXhXjXhXhXhXhX",
"hXhXhXhXhXhXhXhXhXhXhXhXhXhXhXhXhXhXhXhXhXaX>.a.@Xn.q.0 `.cXhXhXgXO.b.H.C.9.u ].jXhXhXhXhXhXhXhXhXhXjXhXhXhXkXhXhXjXhXhXhXhXhXkX",
"hXjXhXhXkXhXjXhXhXhXhXhXhXhXhXhXhXhXhXhXxXW.% I S S S = W.xXhXhXhX+.3.l.l.4.s % 7XkXhXhXhXhXhXhXhXhXhXhXhXhXhXhXhXhXhXhXhXhXhXhX",
"hXhXhXhXhXhXhXhXjXhXhXhXjXhXkXhXhXhXhXhXxXW.p U k I U j  XxXhXhXhXJ.k } Y R R k wXcXgXlXhXhXhXhXhXhXhXhXhXhXhXhXhXhXhXhXhXhXhXhX",
"hXhXhXhXhXhXhXhXhXhXhXhXhXhXhXhXhXhXhXhXhXhXiXpXsXsXpXpXhXhXhXhXhXgXaXuXaXaXgXiXlXhXhXhXlXjXhXhXhXhXjXhXhXhXhXhXhXhXhXjXhXhXhXhX",
"hXhXhXhXhXhXhXhXhXjXhXhXhXhXhXhXhXhXhXhXhXhXkXhXzXxXxXxXhXhXhXhXhXkXkXcXxXxXcXcXkXhXhXhXjXjXhXhXhXhXhXhXhXhXhXjXhXhXkXhXhXhXhXhX",
"hXkXhXhXhXhXhXhXkXhXhXhXhXhXhXhXhXhXhXhXhXhXhXhXhXhXhXhXhXhXhXhXhXhXhXhXhXhXhXhXhXhXhXhXlXlXhXkXhXhXkXhXhXhXhXhXhXhXhXhXhXhXjXhX",
"hXhXhXhXhXhXhXhXhXhXhXhXhXhXhXhXhXhXhXhXhXhXhXhXhXhXhXhXhXhXhXhXhXhXhXhXhXhXhXhXhXhXhXhXhXlXhXhXhXhXhXhXhXhXhXhXhXhXhXhXhXhXhXhX"
};
